inDegrees=no
num_controls=7
num_derivatives=13
num_iterations=133
num_multipliers=7
num_parameters=0
num_slacks=7
num_states=26
objective=0.477046
objective_accelerations=0.044174
objective_balance=0.003612
objective_effort=0.040333
objective_height=0.383246
objective_ligament=0.005680
solver_duration=1834.597790
status=Solve_Succeeded
success=true
DataType=double
version=3
OpenSimVersion=4.5
endheader
time	/jointset/ground_pelvis/pelvis_tilt/value	/jointset/ground_pelvis/pelvis_tx/value	/jointset/ground_pelvis/pelvis_ty/value	/jointset/hip_l/hip_flexion_l/value	/jointset/hip_l/hip_adduction_l/value	/jointset/hip_l/hip_rotation_l/value	/jointset/back/lumbar_extension/value	/jointset/patellofemoral_l/patellar_flexion_l/value	/jointset/knee_l/knee_flexion_l/value	/jointset/knee_l/knee_adduction_l/value	/jointset/knee_l/knee_rotation_l/value	/jointset/ankle_l/ankle_angle_l/value	/jointset/subtalar_l/subtalar_angle_l/value	/jointset/ground_pelvis/pelvis_tilt/speed	/jointset/ground_pelvis/pelvis_tx/speed	/jointset/ground_pelvis/pelvis_ty/speed	/jointset/hip_l/hip_flexion_l/speed	/jointset/hip_l/hip_adduction_l/speed	/jointset/hip_l/hip_rotation_l/speed	/jointset/back/lumbar_extension/speed	/jointset/patellofemoral_l/patellar_flexion_l/speed	/jointset/knee_l/knee_flexion_l/speed	/jointset/knee_l/knee_adduction_l/speed	/jointset/knee_l/knee_rotation_l/speed	/jointset/ankle_l/ankle_angle_l/speed	/jointset/subtalar_l/subtalar_angle_l/speed	/forceset/tau_hip_flexion_l	/forceset/tau_hip_adduction_l	/forceset/tau_hip_rotation_l	/forceset/tau_knee_flexion_l	/forceset/tau_ankle_angle_l	/forceset/tau_subtalar_angle_l	/forceset/tau_lumbar_extension	lambda_cid13_p0	lambda_cid13_p1	lambda_cid13_p2	lambda_cid13_p3	lambda_cid13_p4	lambda_cid13_p5	lambda_cid14_p0	/jointset/ground_pelvis/pelvis_tilt/accel	/jointset/ground_pelvis/pelvis_tx/accel	/jointset/ground_pelvis/pelvis_ty/accel	/jointset/hip_l/hip_flexion_l/accel	/jointset/hip_l/hip_adduction_l/accel	/jointset/hip_l/hip_rotation_l/accel	/jointset/back/lumbar_extension/accel	/jointset/patellofemoral_l/patellar_flexion_l/accel	/jointset/knee_l/knee_flexion_l/accel	/jointset/knee_l/knee_adduction_l/accel	/jointset/knee_l/knee_rotation_l/accel	/jointset/ankle_l/ankle_angle_l/accel	/jointset/subtalar_l/subtalar_angle_l/accel	gamma_cid13_p0	gamma_cid13_p1	gamma_cid13_p2	gamma_cid13_p3	gamma_cid13_p4	gamma_cid13_p5	gamma_cid14_p0
1.5	0.01276366381364641	-0.0103859462330239	0.8531174690229225	0.666914646807977	-0.3225829003736582	-0.1328807792265531	-0.7955481340019296	0.7778894651214502	0.7778894651214526	-0.1031380165910482	-0.1744759510080022	0.1558994041966277	0.02498028223056233	0.3090064723850855	0.2297486713167944	0.4199433003085604	-1.964891461107237	0.08549984519194562	-0.6442240784005676	0.8379741358053002	-1.994478961509019	-1.994478961509019	-0.1423227844775329	-0.0006932839824250425	-0.4604277384047564	-0.06389457099577184	-0.192743833437617	0.01976191852200805	-0.005260324577928331	-0.2294139203267518	0.06495289172813973	0.04269558475122527	0.2762554987964239	-21.15472267311037	-17.26891979251184	5.074779051201375	-7.691623024575258	-669.2300944832119	-77.92803112191967	-15.27707985148789	-0.02103740783715515	0.6426828942043317	-0.6154260795035172	-0.6707049684954756	0.4823801887254465	-0.3563442183283151	1.938213996640126	-0.9936339486016595	-0.9936339486016597	-0.2439867678039273	0.03542696511472169	-0.2844554622240231	0.4654482481802356	3.164262607731456e-07	1.039243686107944e-06	-1.394402558167831e-06	-1.067107076293754e-08	4.012767203240531e-07	5.925047494520117e-07	2.911758941906137e-07
1.51	0.01585256194846338	-0.008056564474204159	0.8572853054892065	0.6472339903974075	-0.3217045953282212	-0.1393412528389325	-0.7870729624687328	0.7578973522470718	0.7578973522470718	-0.1045744339196497	-0.1744829042721092	0.1512813449952698	0.02436372692595522	0.3087345151447479	0.2360998687827191	0.4135373436360635	-1.970981584317262	0.0901582557798101	-0.6477960562657796	0.8569404782810336	-2.003659726775528	-2.003659726775528	-0.1449650051759212	-0.0006956420564244313	-0.4630991212071019	-0.05939894397700174	-0.185711177590065	0.01891825341984713	-0.005044624006855631	-0.2253845617428217	0.06534888715111294	0.04199563822007616	0.2692996204539783	-20.7988781756377	-17.07104902091872	5.093274575054604	-7.534991613383087	-664.7371455458358	-77.82344290378194	-15.99279484350846	-0.03606520544477343	0.627194421764629	-0.6661146672618596	-0.5394228782742571	0.4570230574521364	-0.3462146746040219	1.857890490090872	-0.8377606696128412	-0.837760669612768	-0.2747447437635153	-0.01790931658583666	-0.2456771166768015	0.4440579997606149	2.303377746981119e-07	1.409066908620387e-06	-8.152004523744394e-07	8.876736042675868e-08	3.449633513036818e-07	6.146839225553397e-07	2.502804268057123e-07
1.52	0.01893758244621443	-0.005664499490929546	0.8613864955475377	0.6275001813785341	-0.3207798158641785	-0.1458351642507614	-0.7784117182873688	0.7378219391492405	0.7378219391492384	-0.1060373544598163	-0.1744898495415419	0.1466391324804011	0.02379261550574287	0.3082309449719018	0.2422853162077678	0.4066140187180036	-1.975521982768017	0.0947947289130793	-0.6509116382904547	0.8751886654388046	-2.011139006199528	-2.011139006199528	-0.1476234267905989	-0.0006916850475665135	-0.4652584011069263	-0.05480579411682292	-0.1786785217425129	0.0180745883176862	-0.00482892343578266	-0.2213552031588916	0.06574488257408616	0.04129569168892704	0.2623437421115327	-20.44240129605821	-16.87504568349844	5.114074930559069	-7.415296232101588	-660.2653760766614	-77.75644838928987	-16.69781649955722	-0.06735999433886586	0.6095328860291448	-0.7188997286160965	-0.3607600166413477	0.4779926978063878	-0.2650650502209138	1.794582933047638	-0.6533367800998829	-0.6533367800998826	-0.2472269510617957	0.03668998168618313	-0.1820348817197328	0.4849528164619783	1.729947415383064e-07	1.714673469612035e-06	-4.25224031992195e-07	1.596319580925772e-07	3.163444113675174e-07	6.413547997987836e-07	2.276200081378842e-07
1.53	0.02201640595459042	-0.003211439453305421	0.8654159757994313	0.607728550873059	-0.3198088513643197	-0.1523586058096759	-0.7695718445076525	0.7176801165492115	0.7176801165492122	-0.1075267224204707	-0.1744972432955424	0.1419778607483833	0.02326784847391075	0.3074887227828493	0.2482953836320819	0.3992041247001524	-1.978547012238814	0.09938270666080554	-0.6536785867505778	0.8926481235995303	-2.016945635232509	-2.016945635232523	-0.1502853662604783	-0.0007744574459855854	-0.4669116811625969	-0.05014513196838974	-0.1712897906518812	0.01685602903916358	-0.004686051684142033	-0.2180479425991459	0.066878470585854	0.04050293513817624	0.2551591185518288	-19.87257834296184	-16.66766484560861	5.123437072123911	-7.39355998259348	-656.0807574392891	-77.73955178415099	-17.39262450633695	-0.08441606065232636	0.5920918821452655	-0.7636567659584521	-0.2348158781769578	0.446650591946932	-0.2675849774772754	1.700932221847656	-0.5023886939002877	-0.5023886939002786	-0.2806202128374761	-0.02890318964201578	-0.144266440616622	0.4566807843582509	1.461937521009303e-07	1.952049827737838e-06	-2.362999023592928e-07	2.001368576392761e-07	3.171508023333226e-07	6.727981126911005e-07	2.243343287319461e-07
1.54	0.02508645469518315	-0.0006992090991355357	0.8693690326056289	0.5879343817797003	-0.3187925170312454	-0.1589067318999056	-0.7605615151534764	0.6974886151130522	0.6974886151130556	-0.1090436983294011	-0.1745050932413343	0.1373025978411834	0.02278969963762782	0.3064759914152524	0.2541193795169195	0.3913293295787482	-1.980029700344733	0.1038686955561794	-0.6558485445534721	0.909279780330761	-2.021074773425615	-2.021074773425613	-0.1531450164458125	-0.0007829234058471945	-0.4680566361433546	-0.04548215500698603	-0.1639010595612495	0.01563746976064096	-0.004543179932501478	-0.2147406820395089	0.06801205859762184	0.03971017858742545	0.2479744949920254	-19.29993217387814	-16.46228246475669	5.134836228997734	-7.410533916747485	-651.8843908215571	-77.74922266050288	-18.07823453711521	-0.1214618300477359	0.5723185781338425	-0.8118799493267279	-0.05229174366563064	0.4575949273359213	-0.1456669187751981	1.629022647148635	-0.3178386121247265	-0.3178386121247269	-0.2867690941523901	0.05155126939767579	-0.08036986674228092	0.4854157790560836	1.135464940458663e-07	2.081455798235476e-06	-7.746877033570253e-08	2.344431791908509e-07	2.912873359215244e-07	6.70402134076535e-07	2.151198217369699e-07
